<svg xmlns="http://www.w3.org/2000/svg" xmlns:xlink="http://www.w3.org/1999/xlink" version="1.1" viewBox="0 0 2500 1000" style="background: #ffffff"><g transform="translate(25,100)"><rect width="450" height="300" rx="3" ry="3" x="0" y="0" fill="#ffffff" stroke-width="5" stroke="#009ddd" stroke-dasharray=""/><text x="225" y="77" text-anchor="middle" dominant-baseline="hanging" fill="#009ddd" font-size="30px" font-family="Tahoma, Verdana, Helvetica, Arial"><tspan x="225" dy="40px">Boundary, Software</tspan><tspan x="225" dy="40px">System</tspan></text></g><g transform="translate(525,100)"><rect width="450" height="300" rx="20" ry="20" x="0" y="0" fill="#ffffff" stroke-width="7" stroke="#380339" stroke-dasharray=""/><text x="225" y="95" text-anchor="middle" dominant-baseline="hanging" fill="#380339" font-size="30px" font-family="Tahoma, Verdana, Helvetica, Arial"><tspan x="225" dy="40px">Container</tspan></text></g><g transform="translate(1025,100)"><rect width="150" height="75" rx="15" ry="15" x="15" y="0" fill="#ffffff" stroke-width="7" stroke="#380339" stroke-dasharray=""/><rect width="450" height="262.5" rx="6" ry="6" x="0" y="37.5" fill="#ffffff" stroke-width="7" stroke="#380339" stroke-dasharray=""/><text x="225" y="113.75" text-anchor="middle" dominant-baseline="hanging" fill="#380339" font-size="30px" font-family="Tahoma, Verdana, Helvetica, Arial"><tspan x="225" dy="40px">Container, Folder</tspan></text></g><g transform="translate(1525,25)"><rect x="0" y="180" width="450" height="270" rx="90" fill="#ffffff" stroke-width="7" stroke="#ffb213" stroke-dasharray=""/><circle cx="225" cy="100" r="100" fill="#ffffff" stroke-width="7" stroke="#ffb213" stroke-dasharray=""/><line x1="90" y1="300" x2="90" y2="450" stroke-width="1" stroke="#ffb213" stroke-dasharray=""/><line x1="360" y1="300" x2="360" y2="450" stroke-width="1" stroke="#ffb213" stroke-dasharray=""/><text x="225" y="260" text-anchor="middle" dominant-baseline="hanging" fill="#ffb213" font-size="30px" font-family="Tahoma, Verdana, Helvetica, Arial"><tspan x="225" dy="40px">Person</tspan></text></g><g transform="translate(2025,100)"><rect width="450" height="300" rx="3" ry="3" x="0" y="0" fill="#ffffff" stroke-width="5" stroke="#009ddd" stroke-dasharray=""/><text x="225" y="95" text-anchor="middle" dominant-baseline="hanging" fill="#009ddd" font-size="30px" font-family="Tahoma, Verdana, Helvetica, Arial"><tspan x="225" dy="40px">Software System</tspan></text></g><g transform="translate(25,670)"><path d="M414,0 L414,48 L450,30 L 414,12" style="fill:#444444" /><path d="M0,30 L414,30" style="stroke:#444444; stroke-width: 4; fill: none; stroke-dasharray: 16 16;" /><text x="225" y="55" text-anchor="middle" dominant-baseline="hanging" fill="#444444" font-size="30px" font-family="Tahoma, Verdana, Helvetica, Arial"><tspan x="225" dy="40px">Relationship</tspan></text></g></svg>